<?xml version="1.0" encoding="UTF-8"?>
<!DOCTYPE svg PUBLIC "-//W3C//DTD SVG 1.1//EN" "http://www.w3.org/Graphics/SVG/1.1/DTD/svg11.dtd">
<svg xmlns="http://www.w3.org/2000/svg" version="1.1" width="500px" height="500px" style="shape-rendering:geometricPrecision; text-rendering:geometricPrecision; image-rendering:optimizeQuality; fill-rule:evenodd; clip-rule:evenodd" xmlns:xlink="http://www.w3.org/1999/xlink">
<g><path style="opacity:1" fill="#fefeff" d="M -0.5,-0.5 C 166.167,-0.5 332.833,-0.5 499.5,-0.5C 499.5,166.167 499.5,332.833 499.5,499.5C 332.833,499.5 166.167,499.5 -0.5,499.5C -0.5,332.833 -0.5,166.167 -0.5,-0.5 Z"/></g>
<g><path style="opacity:1" fill="#3fa2ff" d="M 242.5,151.5 C 243.833,151.5 245.167,151.5 246.5,151.5C 246.269,154.785 247.603,157.285 250.5,159C 255.249,162.794 260.416,165.961 266,168.5C 266.749,169.635 266.583,170.635 265.5,171.5C 257.705,168.355 250.705,164.022 244.5,158.5C 237.704,163.984 230.204,168.317 222,171.5C 221.219,170.056 221.386,168.723 222.5,167.5C 229.905,164.919 236.405,160.919 242,155.5C 242.49,154.207 242.657,152.873 242.5,151.5 Z"/></g>
<g><path style="opacity:1" fill="#39a0ff" d="M 302.5,148.5 C 310.295,147.392 315.628,150.392 318.5,157.5C 318.333,158.167 318.167,158.833 318,159.5C 313.006,149.266 306.34,147.932 298,155.5C 297.168,165.184 297.335,174.851 298.5,184.5C 300.795,185.432 303.129,186.265 305.5,187C 306.337,188.011 306.67,189.178 306.5,190.5C 303.687,190.452 301.021,189.785 298.5,188.5C 297.504,194.798 297.17,201.132 297.5,207.5C 296.5,207.5 295.5,207.5 294.5,207.5C 294.666,200.492 294.5,193.492 294,186.5C 287.726,182.947 281.893,178.78 276.5,174C 275.5,173.333 274.5,173.333 273.5,174C 265.095,182.37 255.095,187.87 243.5,190.5C 243.33,189.178 243.663,188.011 244.5,187C 254.845,183.413 264.012,177.913 272,170.5C 272.49,169.207 272.657,167.873 272.5,166.5C 274.167,166.5 275.833,166.5 277.5,166.5C 277.269,169.785 278.603,172.285 281.5,174C 285.667,176.833 289.833,179.667 294,182.5C 294.333,173.833 294.667,165.167 295,156.5C 296.353,152.65 298.853,149.983 302.5,148.5 Z"/></g>
<g><path style="opacity:1" fill="#65e2ff" d="M 314.5,161.5 C 323.052,161.543 325.885,165.543 323,173.5C 321.414,174.376 319.914,175.376 318.5,176.5C 326.432,182.049 326.432,187.549 318.5,193C 323.41,195.322 325.244,199.155 324,204.5C 319.667,209.833 315.333,209.833 311,204.5C 309.746,198.924 311.913,195.591 317.5,194.5C 317.5,193.5 317.5,192.5 317.5,191.5C 312.092,190.363 309.925,187.03 311,181.5C 312.745,179.251 314.912,177.584 317.5,176.5C 309.494,172.786 308.494,167.786 314.5,161.5 Z"/></g>
<g><path style="opacity:1" fill="#5ee1fe" d="M 240.5,167.5 C 242.167,167.5 243.833,167.5 245.5,167.5C 245.5,169.167 245.5,170.833 245.5,172.5C 243.833,172.5 242.167,172.5 240.5,172.5C 240.5,170.833 240.5,169.167 240.5,167.5 Z"/></g>
<g><path style="opacity:1" fill="#39a0ff" d="M 209.5,169.5 C 211.5,169.5 213.5,169.5 215.5,169.5C 215.055,172.365 215.722,174.865 217.5,177C 227.756,185.297 239.089,191.797 251.5,196.5C 252.429,197.689 252.762,199.022 252.5,200.5C 237.449,196.308 224.116,188.974 212.5,178.5C 201.413,189.211 188.413,196.544 173.5,200.5C 173.5,198.833 173.5,197.167 173.5,195.5C 187.143,192.019 198.976,185.353 209,175.5C 209.495,173.527 209.662,171.527 209.5,169.5 Z"/></g>
<g><path style="opacity:1" fill="#5ee1ff" d="M 270.5,183.5 C 272.833,183.5 275.167,183.5 277.5,183.5C 277.5,185.833 277.5,188.167 277.5,190.5C 275.167,190.5 272.833,190.5 270.5,190.5C 270.5,188.167 270.5,185.833 270.5,183.5 Z"/></g>
<g><path style="opacity:1" fill="#5ee1ff" d="M 207.5,192.5 C 210.833,192.5 214.167,192.5 217.5,192.5C 217.5,195.833 217.5,199.167 217.5,202.5C 214.167,202.5 210.833,202.5 207.5,202.5C 207.5,199.167 207.5,195.833 207.5,192.5 Z"/></g>
<g><path style="opacity:1" fill="#339eff" d="M 194.5,219.5 C 204.311,219.139 206.977,223.306 202.5,232C 193.956,235.322 190.123,232.489 191,223.5C 191.69,221.65 192.856,220.316 194.5,219.5 Z"/></g>
<g><path style="opacity:1" fill="#65e2ff" d="M 261.5,219.5 C 271.373,219.192 274.04,223.359 269.5,232C 260.956,235.322 257.123,232.489 258,223.5C 258.69,221.65 259.856,220.316 261.5,219.5 Z"/></g>
<g><path style="opacity:1" fill="#2d9cff" d="M 212.5,235.5 C 222.839,235.334 233.172,235.5 243.5,236C 244,236.5 244.5,237 245,237.5C 245.201,248.034 245.701,258.534 246.5,269C 246.062,270.92 245.395,272.754 244.5,274.5C 233.88,275.643 223.214,275.81 212.5,275C 212,274.5 211.5,274 211,273.5C 210.333,261.5 210.333,249.5 211,237.5C 211.717,236.956 212.217,236.289 212.5,235.5 Z"/></g>
<g><path style="opacity:1" fill="#61e1ff" d="M 279.5,235.5 C 289.506,235.334 299.506,235.5 309.5,236C 310.416,236.374 311.25,236.874 312,237.5C 312.5,248.161 312.667,258.828 312.5,269.5C 313.833,269.5 315.167,269.5 316.5,269.5C 316.5,271.5 316.5,273.5 316.5,275.5C 304.162,275.667 291.829,275.5 279.5,275C 279,274.5 278.5,274 278,273.5C 277.333,261.5 277.333,249.5 278,237.5C 278.717,236.956 279.217,236.289 279.5,235.5 Z"/></g>
<g><path style="opacity:1" fill="#289bff" d="M 190.5,236.5 C 195.167,236.5 199.833,236.5 204.5,236.5C 204.17,252.342 204.504,268.009 205.5,283.5C 205.658,286.545 204.991,289.379 203.5,292C 197.509,292.499 191.509,292.666 185.5,292.5C 185.5,290.5 185.5,288.5 185.5,286.5C 187.167,286.5 188.833,286.5 190.5,286.5C 190.5,269.833 190.5,253.167 190.5,236.5 Z"/></g>
<g><path style="opacity:1" fill="#77bfff" d="M 190.5,236.5 C 195.305,235.513 200.305,235.179 205.5,235.5C 205.5,251.5 205.5,267.5 205.5,283.5C 204.504,268.009 204.17,252.342 204.5,236.5C 199.833,236.5 195.167,236.5 190.5,236.5 Z"/></g>
<g><path style="opacity:1" fill="#64e1ff" d="M 270.5,291.5 C 268.317,288.292 266.317,284.959 264.5,281.5C 262.487,285.247 260.487,288.914 258.5,292.5C 257.167,292.5 255.833,292.5 254.5,292.5C 254.885,288.586 255.885,284.919 257.5,281.5C 257.5,266.167 257.5,250.833 257.5,235.5C 262.5,235.5 267.5,235.5 272.5,235.5C 272.667,253.503 272.5,271.503 272,289.5C 271.722,290.416 271.222,291.082 270.5,291.5 Z"/></g>
<g><path style="opacity:1" fill="#5bb1ff" d="M 224.5,241.5 C 224.5,250.833 224.5,260.167 224.5,269.5C 226.833,269.5 229.167,269.5 231.5,269.5C 229.052,270.473 226.385,270.806 223.5,270.5C 223.173,260.652 223.506,250.986 224.5,241.5 Z"/></g>
<g><path style="opacity:1" fill="#fefeff" d="M 224.5,241.5 C 226.833,241.5 229.167,241.5 231.5,241.5C 231.5,250.833 231.5,260.167 231.5,269.5C 229.167,269.5 226.833,269.5 224.5,269.5C 224.5,260.167 224.5,250.833 224.5,241.5 Z"/></g>
<g><path style="opacity:1" fill="#f2fcff" d="M 291.5,241.5 C 293.833,241.5 296.167,241.5 298.5,241.5C 298.5,250.833 298.5,260.167 298.5,269.5C 296.167,269.5 293.833,269.5 291.5,269.5C 291.5,260.167 291.5,250.833 291.5,241.5 Z"/></g>
<g><path style="opacity:1" fill="#309dff" d="M 231.5,282.5 C 232.946,281.387 234.613,281.22 236.5,282C 234.812,284.825 233.979,287.991 234,291.5C 232.035,292.885 230.202,292.718 228.5,291C 229.784,290.316 230.951,290.483 232,291.5C 232.805,288.304 232.638,285.304 231.5,282.5 Z"/></g>
<g><path style="opacity:1" fill="#2e9dff" d="M 257.5,281.5 C 255.885,284.919 254.885,288.586 254.5,292.5C 253.127,292.657 251.793,292.49 250.5,292C 249.262,291.31 249.262,290.81 250.5,290.5C 251.496,290.414 252.329,290.748 253,291.5C 253.494,289.866 253.66,288.199 253.5,286.5C 253.714,284.856 253.38,283.356 252.5,282C 254.134,281.506 255.801,281.34 257.5,281.5 Z"/></g>
<g><path style="opacity:1" fill="#30a4ff" d="M 270.5,291.5 C 268.735,292.461 266.735,292.795 264.5,292.5C 265.582,290.177 265.415,287.843 264,285.5C 262.096,287.671 261.596,290.004 262.5,292.5C 261.167,292.5 259.833,292.5 258.5,292.5C 260.487,288.914 262.487,285.247 264.5,281.5C 266.317,284.959 268.317,288.292 270.5,291.5 Z"/></g>
<g><path style="opacity:1" fill="#49a6ff" d="M 240.5,281.5 C 247.163,280.333 249.997,282.999 249,289.5C 243.943,294.075 240.109,293.242 237.5,287C 238.124,284.915 239.124,283.082 240.5,281.5 Z"/></g>
<g><path style="opacity:1" fill="#f1f8ff" d="M 241.5,282.5 C 243.144,282.286 244.644,282.62 246,283.5C 246.769,286.099 246.602,288.599 245.5,291C 243.633,291.711 242.133,291.211 241,289.5C 240.444,287.115 240.61,284.782 241.5,282.5 Z"/></g>
<g><path style="opacity:1" fill="#9acbff" d="M 214.5,285.5 C 217.247,285.187 219.914,285.52 222.5,286.5C 221.167,286.833 219.833,287.167 218.5,287.5C 216.667,287.415 215.334,286.748 214.5,285.5 Z"/></g>
<g><path style="opacity:1" fill="#9acbff" d="M 276.5,285.5 C 279.247,285.187 281.914,285.52 284.5,286.5C 283.167,286.833 281.833,287.167 280.5,287.5C 278.667,287.415 277.334,286.748 276.5,285.5 Z"/></g>
<g><path style="opacity:1" fill="#6cd6ff" d="M 253.5,286.5 C 253.66,288.199 253.494,289.866 253,291.5C 252.329,290.748 251.496,290.414 250.5,290.5C 251.659,289.26 252.659,287.926 253.5,286.5 Z"/></g>
<g><path style="opacity:1" fill="#57d5ff" d="M 264.5,292.5 C 263.833,292.5 263.167,292.5 262.5,292.5C 261.596,290.004 262.096,287.671 264,285.5C 265.415,287.843 265.582,290.177 264.5,292.5 Z"/></g>
<g><path style="opacity:1" fill="#6ae2ff" d="M 219.5,300.5 C 235.266,305.733 251.1,305.733 267,300.5C 271.363,302.399 275.863,303.899 280.5,305C 290.476,305.999 300.476,306.666 310.5,307C 296.155,310.771 281.988,310.271 268,305.5C 251.96,312.093 235.96,312.093 220,305.5C 206.301,310.077 192.467,310.577 178.5,307C 191.005,307.151 203.339,305.818 215.5,303C 217.066,302.392 218.4,301.558 219.5,300.5 Z"/></g>
<g><path style="opacity:1" fill="#6ae2ff" d="M 197.5,318.5 C 197.735,317.903 198.235,317.57 199,317.5C 214.444,322.694 229.944,322.694 245.5,317.5C 261.111,322.124 276.778,322.624 292.5,319C 285.878,325.487 277.878,328.32 268.5,327.5C 259.91,327.692 252.077,325.359 245,320.5C 234.796,325.806 223.963,327.64 212.5,326C 206.926,324.546 201.926,322.046 197.5,318.5 Z"/></g>
</svg>
